<svg data-v-0dd9719b="" version="1.0" xmlns="http://www.w3.org/2000/svg" xmlns:xlink="http://www.w3.org/1999/xlink" width="100%" height="100%" viewBox="0 0 340.000000 250.000000" preserveAspectRatio="xMidYMid meet" color-interpolation-filters="sRGB" style="margin: auto;"> <rect data-v-0dd9719b="" x="0" y="0" width="100%" height="100%" fill="#fff" fill-opacity="1" class="background"></rect> <rect data-v-0dd9719b="" x="0" y="0" width="100%" height="100%" fill="url(#watermark)" fill-opacity="1" class="watermarklayer"></rect> <g data-v-0dd9719b="" fill="#333" class="icon-text-wrapper icon-svg-group iconsvg" transform="translate(48.25499725341797,95)"><g class="iconsvg-imagesvg" transform="translate(0,0)"><g><rect fill="#333" fill-opacity="0" stroke-width="2" x="0" y="0" width="60" height="60" class="image-rect"></rect> <svg x="0" y="0" width="60" height="60" filtersec="colorsb5482576538" class="image-svg-svg primary" style="overflow: visible;"><svg xmlns="http://www.w3.org/2000/svg" viewBox="0 0 100 100"><path d="M34.05 91.17L58.76 100c-8.16-3-14.89-17.46-15-37.41C43.69 50 20.23 49 18 56.37c-2 6.55.94 29.25 16.05 34.8z" fill="#67b14b"></path><path d="M91.17 66L100 41.25c-3 8.16-17.46 14.88-37.41 15C50 56.31 49 79.77 56.37 82c6.56 2 29.25-.94 34.8-16z" fill="#962769"></path><path d="M66 8.83L41.24 0c8.16 3.05 14.89 17.46 15 37.41C56.31 50.05 79.77 51 82 43.63c2-6.55-.94-29.25-16-34.8z" fill="#efa727"></path><path d="M8.83 34.05L0 58.76c3.05-8.16 17.46-14.89 37.41-15C50.05 43.69 51 20.23 43.63 18c-6.55-2-29.25.94-34.8 16.05z" fill="#2f6db9"></path><path d="M16.88 56.11a5.72 5.72 0 0 1 .95-1.81 8.06 8.06 0 0 1-2-4.16c-6 1.52-12.85 6.67-14 10-1.3 3.91 3.94 12.93 16.28 13.47-2.11-7.19-2.22-14.26-1.23-17.5z" fill="#2f6db9"></path><path d="M61.63 84.33a19 19 0 0 1-5.32-.62 5.51 5.51 0 0 1-1.81-.95 8.09 8.09 0 0 1-4.17 2c1.52 6 6.67 12.85 10 14 3.91 1.31 13-3.93 13.47-16.3a43.7 43.7 0 0 1-12.17 1.87z" fill="#67b14b"></path><path d="M82.67 26.79c2.12 7.21 2.22 14.26 1.23 17.49a5.43 5.43 0 0 1-1 1.81 8 8 0 0 1 2 4.17c6-1.52 12.86-6.67 14-10 1.35-3.91-3.9-12.93-16.23-13.47z" fill="#962769"></path><path d="M39.16 16.06a19.4 19.4 0 0 1 5.32.62 6 6 0 0 1 1.81 1 8 8 0 0 1 4.16-2c-1.52-6-6.67-12.86-10-14C36.54.34 27.5 5.58 27 18a43.44 43.44 0 0 1 12.16-1.94z" fill="#efa727"></path></svg></svg> <!----></g></g> <g transform="translate(67,1.6387519836425781)"><g data-gra="path-name" fill-rule="" class="tp-name iconsvg-namesvg" transform="translate(0,0)"><g transform="scale(1)"><g><path d="M40.09-7.56L40.09-7.56 24.03-7.56 24.03-4.72 41.89-4.72 41.89-1.8 24.03-1.8 24.03 0.99 42.7 0.99 42.7 3.92 2.34 3.92 2.34 0.99 21.06 0.99 21.06-1.8 3.19-1.8 3.19-4.72 21.06-4.72 21.06-7.56 5-7.56Q4.37-7.56 3.94-7.96 3.51-8.37 3.51-9L3.51-9 3.51-22.86Q3.51-23.49 3.94-23.92 4.37-24.34 5-24.34L5-24.34 21.06-24.34 21.06-26.91 2.34-26.91 2.34-29.88 21.06-29.88 21.06-32.76 3.01-32.31 2.92-35.28 41.85-36.31 41.89-33.34 24.03-32.85 24.03-29.88 42.7-29.88 42.7-26.91 24.03-26.91 24.03-24.34 40.09-24.34Q40.73-24.34 41.15-23.92 41.58-23.49 41.58-22.86L41.58-22.86 41.58-9Q41.58-8.37 41.15-7.96 40.73-7.56 40.09-7.56L40.09-7.56ZM6.48-21.42L6.48-17.41 21.06-17.41 21.06-21.42 6.48-21.42ZM38.61-17.41L38.61-21.42 24.03-21.42 24.03-17.41 38.61-17.41ZM6.48-14.49L6.48-10.48 21.06-10.48 21.06-14.49 6.48-14.49ZM24.03-10.48L38.61-10.48 38.61-14.49 24.03-14.49 24.03-10.48ZM49.59 4.05L49.59 4.05 46.76 3.15 49.05-4 49.05-31.81Q49.05-32.45 49.48-32.87 49.91-33.3 50.53-33.3L50.53-33.3 68.09-33.3 67.45-35.95 70.33-36.63 71.14-33.3 87.16-33.3 87.16-30.33 52.02-30.33 52.02-3.73Q52.02-3.65 51.93-3.28L51.93-3.28 49.59 4.05ZM87.3 2.48L85.19 4.5 69.8-11.38 54.45 4.5 52.34 2.48 68.36-14.13 68.36-18.9 53.37-18.9 53.37-21.87 68.36-21.87 68.36-28.93 71.28-28.93 71.28-21.87 86.22-21.87 86.22-18.9 71.28-18.9 71.28-14.13 87.3 2.48ZM130.81-19.21L130.81-19.21 104.85-19.21Q104.04-19.21 103.64-19.84L103.64-19.84Q103.19-20.52 103.45-21.2L103.45-21.2 106.61-30.69 103-30.69 103-33.62 116.33-33.62 115.97-36.31 118.89-36.72 119.3-33.62 132.66-33.62 132.66-30.69 109.71-30.69 106.88-22.18 128.88-22.18 127.03-28.89 129.91-29.65 132.25-21.11Q132.44-20.43 131.99-19.8L131.99-19.8Q131.53-19.21 130.81-19.21L130.81-19.21ZM94.95 4.46L94.95 4.46 92.16 3.51 99.27-16.92 91.58-22.45 93.28-24.84 101.88-18.68Q102.28-18.4 102.42-17.93 102.56-17.46 102.42-17.01L102.42-17.01 94.95 4.46ZM132.39 4.05L132.39 4.05 128.16 4.05Q127.53 4.05 127.13 3.62 126.72 3.19 126.72 2.56L126.72 2.56 126.72-18 129.64-18 129.64 1.08 132.39 1.08 132.39 4.05ZM103.32-29.65L101.52-27.31 92.07-34.52 93.87-36.85 103.32-29.65ZM108.59-17.91L106.69 4.09 103.72 3.87 105.61-18.13 108.59-17.91ZM118.98-17.46L118.98 3.42 116.01 3.42 116.01-17.46 118.98-17.46ZM176.81-17.73L176.81-17.73 172.66-17.73 172.66-14.8 177.66-14.8 177.66-11.83 174.91-11.83 178.83-6.88 176.49-5.08 171.18-11.83 156.96-11.83 151.65-5.08 149.31-6.88 153.22-11.83 150.48-11.83 150.48-14.8 155.47-14.8 155.47-17.73 151.34-17.73 151.34-20.7 155.47-20.7 155.47-22.86 152.73-22.86Q152.1-22.86 151.67-23.27 151.25-23.67 151.25-24.3L151.25-24.3 151.25-34.78Q151.25-35.41 151.67-35.84 152.1-36.27 152.73-36.27L152.73-36.27 175.41-36.27Q176.04-36.27 176.47-35.84 176.89-35.41 176.89-34.78L176.89-34.78 176.89-24.3Q176.89-23.67 176.47-23.27 176.04-22.86 175.41-22.86L175.41-22.86 172.66-22.86 172.66-20.7 176.81-20.7 176.81-17.73ZM175.81 3.69L175.81 3.69 165.74-2.97 165.74 2.43Q165.74 3.06 165.31 3.49 164.88 3.92 164.25 3.92L164.25 3.92 156.87 3.92 156.87 0.99 162.81 0.99 162.81-10.66 165.74-10.66 165.74-6.52 168.84-4.46 171.63-9.09 174.15-7.56 171.31-2.79 177.44 1.26 175.81 3.69ZM150.44 3.01L147.6 3.78 143.59-10.39 139.59 3.78 136.71 3.01 142.11-16.06 142.11-36.27 145.08-36.27 145.08-15.93 150.44 3.01ZM140.99-14.71L138.01-14.54 136.94-33.75 139.86-33.93 140.99-14.71ZM150.25-33.75L149.13-14.54 146.21-14.71 147.28-33.93 150.25-33.75ZM173.93-31.05L173.93-33.34 154.17-33.34 154.17-31.05 173.93-31.05ZM154.17-28.08L154.17-25.79 173.93-25.79 173.93-28.08 154.17-28.08ZM158.4-22.86L158.4-20.7 169.69-20.7 169.69-22.86 158.4-22.86ZM158.4-17.73L158.4-14.8 169.69-14.8 169.69-17.73 158.4-17.73ZM159.66-6.34L157.28-4.59 154.66-8.1 157.05-9.86 159.66-6.34ZM162.59-3.46L152.1 3.33 150.48 0.85 160.97-5.94 162.59-3.46Z" transform="translate(-2.3399999141693115, 36.849998474121094)"></path></g> <!----> <!----> <!----> <!----> <!----> <!----> <!----></g></g> <g data-gra="path-slogan" fill-rule="" class="tp-slogan iconsvg-slogansvg" fill="#333" transform="translate(27.56500244140625,47.349998474121094)"><!----> <!----> <g transform="scale(1, 1)"><g transform="scale(1)"><path d="M8.06-6.05L8.06-6.05L6.94-6.05Q6.52-7.78 4.55-7.83L4.55-7.83Q1.83-7.69 1.73-4.36L1.73-4.36Q1.73-0.80 4.59-0.80L4.59-0.80Q6.56-0.84 7.03-3.19L7.03-3.19L8.16-3.19Q7.64 0.05 4.36 0.14L4.36 0.14Q0.61 0 0.52-4.31L0.52-4.31Q0.70-8.63 4.55-8.81L4.55-8.81Q7.59-8.72 8.06-6.05ZM10.69-5.06L15.19-5.06L15.19-8.58L16.36-8.58L16.36 0L15.19 0L15.19-3.98L10.69-3.98L10.69 0L9.52 0L9.52-8.58L10.69-8.58L10.69-5.06ZM24.94-4.27L24.94-4.27Q24.75-7.64 21.94-7.83L21.94-7.83Q19.08-7.69 18.94-4.27L18.94-4.27Q19.08-0.94 21.94-0.80L21.94-0.80Q24.75-0.98 24.94-4.27ZM26.11-4.27L26.11-4.27Q25.83 0 21.94 0.14L21.94 0.14Q18 0 17.72-4.27L17.72-4.27Q17.95-8.72 21.94-8.81L21.94-8.81Q25.83-8.67 26.11-4.27ZM28.88-8.58L33.19-1.64L33.19-8.58L34.31-8.58L34.31 0L33 0L28.64-6.94L28.59-6.94L28.59 0L27.47 0L27.47-8.58L28.88-8.58ZM42.52-3.61L39.89-3.61L39.89-4.59L43.64-4.59L43.64 0L42.89 0L42.61-1.08Q41.63 0.09 39.80 0.14L39.80 0.14Q38.06 0.14 37.13-0.75L37.13-0.75Q35.72-2.06 35.77-4.36L35.77-4.36Q36.09-8.63 39.84-8.81L39.84-8.81Q43.03-8.63 43.50-6L43.50-6L42.38-6Q41.91-7.78 39.80-7.83L39.80-7.83Q37.13-7.64 36.98-4.31L36.98-4.31Q36.98-0.75 39.84-0.75L39.84-0.75Q40.88-0.75 41.63-1.31L41.63-1.31Q42.56-2.06 42.52-3.61L42.52-3.61ZM50.44-1.08L49.55-1.78L50.16-2.48L51.23-1.64Q52.22-2.63 52.22-4.27L52.22-4.27Q52.03-7.64 49.22-7.83L49.22-7.83Q46.36-7.69 46.22-4.27L46.22-4.27Q46.36-0.94 49.22-0.80L49.22-0.80Q49.92-0.80 50.44-1.08L50.44-1.08ZM52.17-0.94L53.30-0.05L52.73 0.56L51.42-0.33Q50.58 0.14 49.22 0.14L49.22 0.14Q45.28 0 45-4.27L45-4.27Q45.23-8.72 49.22-8.81L49.22-8.81Q53.11-8.67 53.39-4.27L53.39-4.27Q53.34-2.20 52.17-0.94L52.17-0.94ZM54.94-8.58L56.11-8.58L56.11 0L54.94 0L54.94-8.58ZM59.48-8.58L63.80-1.64L63.80-8.58L64.92-8.58L64.92 0L63.61 0L59.25-6.94L59.20-6.94L59.20 0L58.08 0L58.08-8.58L59.48-8.58ZM73.13-3.61L70.50-3.61L70.50-4.59L74.25-4.59L74.25 0L73.50 0L73.22-1.08Q72.23 0.09 70.41 0.14L70.41 0.14Q68.67 0.14 67.73-0.75L67.73-0.75Q66.33-2.06 66.38-4.36L66.38-4.36Q66.70-8.63 70.45-8.81L70.45-8.81Q73.64-8.63 74.11-6L74.11-6L72.98-6Q72.52-7.78 70.41-7.83L70.41-7.83Q67.73-7.64 67.59-4.31L67.59-4.31Q67.59-0.75 70.45-0.75L70.45-0.75Q71.48-0.75 72.23-1.31L72.23-1.31Q73.17-2.06 73.13-3.61L73.13-3.61ZM79.36-8.58L80.53-8.58L80.53-1.03L84.89-1.03L84.89 0L79.36 0L79.36-8.58ZM86.20-8.58L87.38-8.58L87.38 0L86.20 0L86.20-8.58ZM95.02-3.19L95.02-8.58L96.19-8.58L96.19-3.05Q96.05 0.05 92.67 0.14L92.67 0.14Q89.53 0.05 89.39-2.86L89.39-2.86L89.39-8.58L90.56-8.58L90.56-3.19Q90.61-0.84 92.72-0.80L92.72-0.80Q95.02-0.84 95.02-3.19L95.02-3.19ZM101.20-7.64L99.14-7.64L99.14-4.97L101.20-4.97Q103.03-4.92 102.98-6.38L102.98-6.38Q102.98-7.64 101.20-7.64L101.20-7.64ZM101.67 0L97.97 0L97.97-8.58L101.77-8.58Q104.06-8.48 104.16-6.42L104.16-6.42Q104.16-5.16 103.03-4.64L103.03-4.64Q104.63-4.08 104.63-2.53L104.63-2.53Q104.48-0.09 101.67 0L101.67 0ZM101.39-3.98L99.14-3.98L99.14-0.98L101.63-0.98Q103.41-1.03 103.45-2.53L103.45-2.53Q103.45-3.98 101.39-3.98L101.39-3.98ZM111.61 0L110.77-2.48L107.30-2.48L106.41 0L105.23 0L108.47-8.58L109.78-8.58L112.88 0L111.61 0ZM109.03-7.31L107.67-3.52L110.34-3.52L109.08-7.31L109.03-7.31ZM120.70-4.27L120.70-4.27Q120.52-7.64 117.70-7.83L117.70-7.83Q114.84-7.69 114.70-4.27L114.70-4.27Q114.84-0.94 117.70-0.80L117.70-0.80Q120.52-0.98 120.70-4.27ZM121.88-4.27L121.88-4.27Q121.59 0 117.70 0.14L117.70 0.14Q113.77 0 113.48-4.27L113.48-4.27Q113.72-8.72 117.70-8.81L117.70-8.81Q121.59-8.67 121.88-4.27Z" transform="translate(-0.515625, 8.8125)"></path></g></g></g></g></g><defs v-gra="od"></defs></svg>